<svg width="32" height="32" fill="#151515" xmlns="http://www.w3.org/2000/svg"><path d="M61.449-18.37c-4.017 0-7.26 3.131-7.26 6.995 0 3.864 3.243 6.995 7.26 6.995 3.194 0 5.904-1.981 6.872-4.745h-4.017a3.599 3.599 0 0 1-2.855 1.419c-1.573 0-2.88-1.003-3.412-2.397h10.55c.073-.416.121-.832.121-1.272 0-3.864-3.243-6.994-7.26-6.994zm-3.412 5.723c.532-1.394 1.839-2.396 3.412-2.396 1.548 0 2.88 1.002 3.412 2.396zM43.745 9.832c-1.403-.172-3-.783-3-1.566 0-.88.75-1.174 1.548-1.174.799 0 1.55.294 1.55 1.419h3.629c0-2.837-2.372-4.5-5.179-4.5-2.807 0-5.178 1.663-5.178 4.353 0 2.079 2.444 3.644 4.985 3.962 1.089.147 1.887.71 1.887 1.32 0 .857-.895 1.273-1.694 1.273-.798 0-1.694-.294-1.694-1.419h-3.63c0 2.837 2.517 4.5 5.324 4.5s5.324-1.663 5.324-4.5c0-2.225-1.96-3.448-3.872-3.668zM56.282 4.01c-1.21 0-2.299.441-3.146 1.175V0h-3.63v17.609h3.63V10.98c0-2.005 1.138-3.644 3.146-3.644 2.009 0 3.146 1.639 3.146 3.668v6.604h3.63v-6.604c0-3.864-2.759-6.994-6.776-6.994zm15.735 0c-4.016 0-6.775 3.131-6.775 6.995v6.604h3.63v-6.604c0-2.03 1.137-3.668 3.146-3.668 2.008 0 3.145 1.639 3.145 3.668v6.604h3.63v-6.604c0-3.864-2.759-6.994-6.776-6.994zm15.618 0c-4.017 0-7.26 3.131-7.26 6.995 0 3.865 3.243 6.995 7.26 6.995 3.194 0 5.904-1.981 6.872-4.745H90.49a3.598 3.598 0 0 1-2.855 1.419c-1.573 0-2.88-1.003-3.412-2.397h10.55c.073-.416.121-.831.121-1.272 0-3.864-3.243-6.994-7.26-6.994zm-3.412 5.724c.532-1.394 1.839-2.397 3.412-2.397 1.548 0 2.88 1.003 3.412 2.397zm18.599.098c-1.403-.172-3-.783-3-1.566 0-.88.75-1.174 1.549-1.174.798 0 1.548.294 1.548 1.419h3.63c0-2.837-2.371-4.5-5.178-4.5s-5.179 1.663-5.179 4.353c0 2.079 2.444 3.644 4.985 3.962 1.089.147 1.887.71 1.887 1.32 0 .857-.895 1.273-1.693 1.273-.799 0-1.694-.294-1.694-1.419h-3.63c0 2.837 2.517 4.5 5.324 4.5s5.323-1.663 5.323-4.5c0-2.225-1.96-3.448-3.872-3.668zm12.295-5.822c-4.017 0-7.259 3.131-7.259 6.995 0 3.865 3.242 6.995 7.259 6.995 3.194 0 5.905-1.981 6.873-4.745h-4.017a3.6 3.6 0 0 1-2.856 1.419c-1.573 0-2.879-1.003-3.412-2.397h10.551c.072-.416.121-.831.121-1.272 0-3.864-3.243-6.994-7.26-6.994zm-3.412 5.724c.533-1.394 1.839-2.397 3.412-2.397 1.549 0 2.88 1.003 3.412 2.397zm18.891-2.397c1.403 0 2.589.783 3.218 1.956h3.823c-.798-3.032-3.654-5.282-7.041-5.282-4.017 0-7.26 3.13-7.26 6.994 0 3.865 3.243 6.995 7.26 6.995 3.363 0 6.17-2.201 6.993-5.185h-3.896c-.605 1.1-1.742 1.859-3.097 1.859-2.009 0-3.63-1.639-3.63-3.669 0-2.03 1.621-3.668 3.63-3.668zm22.333 3.668c0-3.864-3.218-6.994-7.211-6.994-3.992 0-7.211 3.13-7.211 6.994 0 3.865 3.219 6.995 7.211 6.995 3.993 0 7.211-3.13 7.211-6.995zm-3.629 0c0 2.03-1.598 3.669-3.582 3.669-1.984 0-3.581-1.639-3.581-3.669 0-2.03 1.597-3.668 3.581-3.668s3.582 1.639 3.582 3.668zm21.167-6.995a6.112 6.112 0 0 0-4.719 2.226 6.112 6.112 0 0 0-4.719-2.225c-4.017 0-6.533 3.13-6.533 6.994v6.604h3.63v-6.604c0-2.03.895-3.668 2.903-3.668 2.009 0 2.904 1.639 2.904 3.668v6.604h3.63v-6.604c0-2.03.895-3.668 2.904-3.668 2.008 0 2.903 1.639 2.903 3.668v6.604H177v-6.604c0-3.864-2.517-6.994-6.533-6.994z"/><path style="fill:#fff" d="M-.571-.132h33.12v32.609H-.571z"/><path d="M9.872 17.957h6.533v-3.522H9.872v-3.718h7.985V7.196H6v17.608h3.872z" class="a"/><path d="M18.74 18.196v6.603h3.63v-6.603c0-2.03 1.622-3.669 3.63-3.669v-3.326h-.484c-4.017 0-6.775 3.13-6.775 6.995z"/></svg>